<?xml version="1.0" standalone="no"?><!DOCTYPE svg PUBLIC "-//W3C//DTD SVG 1.1//EN"
        "http://www.w3.org/Graphics/SVG/1.1/DTD/svg11.dtd">
<svg t="1779119719543" class="icon" viewBox="0 0 1024 1024" version="1.1" xmlns="http://www.w3.org/2000/svg"
     p-id="29074" width="200" height="200">
    <path d="M691.677867 455.816533h-24.302934V298.666667h24.302934v157.149866zM598.357333 298.666667h40.5504v157.149866h-40.5504V298.666667z m-105.403733 0h44.578133v157.149866h-44.578133V298.666667z m-81.1008 0h32.426667v157.149866h-32.426667V298.666667z m-64.853333 0h28.330666v157.149866h-28.330666V298.666667z m0 273.954133h28.330666v185.344h-28.330666V572.6208z m97.28 185.344h-32.426667V572.6208h32.426667v185.344z m93.252266 0h-44.578133V572.6208h44.578133v185.344z m101.376 0h-40.5504V572.6208h40.5504v185.344z m-385.2288 0V572.6208h64.853334v185.344h-64.853334z m64.853334-459.298133v157.149866h-64.853334V298.666667h64.853334z m466.397866 0v157.149866h-52.701866V298.666667h52.701866z m-52.701866 459.298133V572.6208h52.701866v185.344h-52.701866zM156.330667 488.0384h734.0032c16.1792 0 28.330667 12.0832 28.330666 28.194133a27.648 27.648 0 0 1-28.330666 28.194134H156.330667a27.8528 27.8528 0 0 1-28.398934-28.194134c0-16.110933 12.151467-28.194133 28.398934-28.194133z m535.210666 269.9264h-24.234666V572.6208h24.302933v185.344zM0 357.5808c0 1.365333 0.477867 34.6112 34.542933 34.6112 34.133333 0 34.6112-33.1776 34.6112-34.6112V142.7456A73.728 73.728 0 0 1 142.677333 69.154133h214.8352c1.365333 0 34.6112-0.477867 34.6112-34.6112S359.0144 0 357.5808 0H142.677333A142.7456 142.7456 0 0 0 0 142.609067v215.04zM989.457067 392.192c34.133333 0 34.542933-33.1776 34.542933-34.6112V142.677333A142.7456 142.7456 0 0 0 881.390933 0h-215.04c-1.365333 0-34.542933 0.477867-34.542933 34.542933 0 34.133333 33.1776 34.6112 34.6112 34.6112h214.8352a73.728 73.728 0 0 1 73.591467 73.591467v214.8352c0 1.365333 0.477867 34.6112 34.6112 34.6112zM34.542933 631.808c-34.133333 0-34.542933 33.1776-34.542933 34.6112v214.971733C0 960.1024 64.034133 1024 142.609067 1024h215.04c1.365333 0 34.542933-0.477867 34.542933-34.542933 0-34.133333-33.1776-34.6112-34.6112-34.6112H142.7456a73.728 73.728 0 0 1-73.591467-73.591467V666.4192c0-1.365333-0.477867-34.6112-34.6112-34.6112zM1024 666.4192c0-1.365333-0.477867-34.6112-34.542933-34.6112-34.133333 0-34.6112 33.1776-34.6112 34.6112v214.8352a73.728 73.728 0 0 1-73.591467 73.591467H666.4192c-1.365333 0-34.6112 0.477867-34.6112 34.6112s33.1776 34.542933 34.6112 34.542933h214.971733A142.7456 142.7456 0 0 0 1024 881.390933v-215.04z"
          fill="#FFFFFF" p-id="29075"></path>
</svg>